<svg width="62" height="62" viewBox="0 0 62 62" fill="none" xmlns="http://www.w3.org/2000/svg">
<path d="M50.3364 2.95459H3.81581C1.71179 2.95459 0 4.66638 0 6.7704V45.5376C0 47.6416 1.71179 49.3533 3.81581 49.3533H34.2844C34.786 49.3533 35.1926 48.9466 35.1926 48.4451C35.1926 47.9435 34.786 47.5368 34.2844 47.5368H30.8918V41.6609C30.8918 40.1155 29.9702 38.7329 28.5437 38.1387L23.7723 36.1506C23.3872 35.9901 23.1384 35.6169 23.1384 35.1997V33.7817C24.3611 32.5382 25.0767 30.8449 25.0767 29.0616V25.1849C25.0767 22.0121 22.0606 19.4307 18.3534 19.4307C14.6463 19.4307 11.6302 22.012 11.6302 25.1849V29.0616C11.6302 30.8447 12.3458 32.5381 13.5685 33.7817V35.1997C13.5685 35.6169 13.3197 35.9901 12.9346 36.1507L8.16334 38.1387C6.73685 38.733 5.81508 40.1156 5.81508 41.661V47.537H3.81581C2.71336 47.537 1.81642 46.64 1.81642 45.5377V14.4628H52.3357V29.5461C52.3357 30.0477 52.7423 30.4543 53.2439 30.4543C53.7455 30.4543 54.1521 30.0477 54.1521 29.5461V6.7704C54.1521 4.66638 52.4404 2.95459 50.3364 2.95459ZM7.63149 41.6609C7.63149 40.8511 8.11442 40.1267 8.86193 39.8153L13.6333 37.8273C14.6974 37.3839 15.3849 36.3526 15.3849 35.1997V35.003C15.7183 35.0243 16.051 34.8613 16.2298 34.5526C16.4811 34.1185 16.333 33.5629 15.899 33.3115C14.3864 32.4358 13.4467 30.8073 13.4467 29.0617V25.185C13.4467 23.0138 15.6479 21.2472 18.3536 21.2472C21.0592 21.2472 23.2604 23.0136 23.2604 25.185V29.0617C23.2604 30.808 22.3201 32.4369 20.8066 33.3126C20.3724 33.5638 20.2241 34.1193 20.4753 34.5536C20.6436 34.8446 20.9486 35.0072 21.2623 35.0072C21.2822 35.0072 21.3022 35.0047 21.3222 35.0033V35.2C21.3222 36.3528 22.0098 37.3842 23.0739 37.8275L27.8453 39.8156C28.5927 40.127 29.0756 40.8515 29.0756 41.6611V47.5371H7.63149V41.6609ZM52.3357 12.6464H1.81642V6.7704C1.81642 5.66795 2.71336 4.77101 3.81581 4.77101H50.3364C51.4389 4.77101 52.3357 5.66795 52.3357 6.7704V12.6464Z" fill="white"/>
<path d="M4.79461 7.80078H4.78493C4.28335 7.80078 3.88156 8.20742 3.88156 8.70899C3.88156 9.21056 4.29304 9.6172 4.79461 9.6172C5.29619 9.6172 5.70282 9.21056 5.70282 8.70899C5.70282 8.20742 5.29619 7.80078 4.79461 7.80078Z" fill="white"/>
<path d="M10.6 7.80078H10.5903C10.0887 7.80078 9.68695 8.20742 9.68695 8.70899C9.68695 9.21056 10.0984 9.6172 10.6 9.6172C11.1016 9.6172 11.5082 9.21056 11.5082 8.70899C11.5082 8.20742 11.1016 7.80078 10.6 7.80078Z" fill="white"/>
<path d="M7.69241 7.80078H7.68272C7.18115 7.80078 6.77936 8.20742 6.77936 8.70899C6.77936 9.21056 7.19084 9.6172 7.69241 9.6172C8.19398 9.6172 8.60062 9.21056 8.60062 8.70899C8.60062 8.20742 8.19398 7.80078 7.69241 7.80078Z" fill="white"/>
<path d="M49.3672 7.80078H14.4767C13.9751 7.80078 13.5685 8.20742 13.5685 8.70899C13.5685 9.21056 13.9751 9.6172 14.4767 9.6172H49.3672C49.8687 9.6172 50.2754 9.21056 50.2754 8.70899C50.2754 8.20742 49.8687 7.80078 49.3672 7.80078Z" fill="white"/>
<path d="M61.3905 35.6623L48.3066 31.1113C48.1134 31.044 47.9032 31.044 47.7099 31.1113L38.301 34.3839C37.8273 34.5487 37.5768 35.0664 37.7415 35.5401C37.9063 36.0138 38.424 36.2641 38.8976 36.0995L48.0081 32.9307L60.1404 37.1506C60.0346 38.3103 59.6789 40.9087 58.4992 44.0201C57.061 47.8131 54.079 53.1095 48.0081 57.0605C41.9635 53.1262 38.9835 47.8584 37.5424 44.0864C35.9289 39.8628 35.8329 36.5329 35.8321 36.4997C35.8208 35.9988 35.4119 35.6028 34.9049 35.612C34.4034 35.6227 34.0055 36.0378 34.016 36.5392C34.0192 36.685 34.1112 40.1607 35.8185 44.6639C37.3932 48.8173 40.703 54.66 47.528 58.908C47.6749 58.9994 47.8414 59.0452 48.0079 59.0452C48.1744 59.0452 48.3409 58.9996 48.4878 58.908C55.3128 54.66 58.6226 48.8173 60.1973 44.6639C61.9047 40.1607 61.9967 36.685 61.9998 36.5392C62.0085 36.1457 61.7623 35.7915 61.3905 35.6623Z" fill="white"/>
<path d="M53.9125 40.7843C53.5578 40.4296 52.9827 40.4296 52.6281 40.7843L47.0127 46.3997L43.6728 43.0598C43.3182 42.7051 42.7431 42.7051 42.3885 43.0598C42.0338 43.4145 42.0338 43.9896 42.3885 44.3441L46.3706 48.3262C46.5479 48.5036 46.7804 48.5923 47.0127 48.5923C47.2451 48.5923 47.4776 48.5036 47.6549 48.3262L53.9125 42.0687C54.2672 41.714 54.2672 41.1389 53.9125 40.7843Z" fill="white"/>
<path d="M46.4597 18.4614H30.9527C29.9175 18.4614 29.0754 19.3036 29.0754 20.3388V23.2464C29.0754 24.2816 29.9176 25.1237 30.9527 25.1237H46.4596C47.4948 25.1238 48.337 24.2816 48.337 23.2464V20.3388C48.337 19.3035 47.4948 18.4614 46.4597 18.4614ZM46.5205 23.2464C46.5205 23.28 46.4931 23.3073 46.4596 23.3073H30.9527C30.9192 23.3074 30.8918 23.28 30.8918 23.2464V20.3388C30.8918 20.3051 30.9192 20.2778 30.9527 20.2778H46.4596C46.4933 20.2778 46.5205 20.3052 46.5205 20.3388V23.2464Z" fill="white"/>
<path d="M42.5829 27.1841H30.9527C30.4511 27.1841 30.0445 27.5907 30.0445 28.0923C30.0445 28.5939 30.4511 29.0005 30.9527 29.0005H42.5829C43.0844 29.0005 43.4911 28.5939 43.4911 28.0923C43.4911 27.5907 43.0844 27.1841 42.5829 27.1841Z" fill="white"/>
<path d="M37.737 31.061H30.9527C30.4511 31.061 30.0445 31.4677 30.0445 31.9692C30.0445 32.4708 30.4511 32.8775 30.9527 32.8775H37.737C38.2386 32.8775 38.6452 32.4708 38.6452 31.9692C38.6452 31.4677 38.2386 31.061 37.737 31.061Z" fill="white"/>
</svg>
