<svg width="50" height="50" viewBox="0 0 50 50" fill="none" xmlns="http://www.w3.org/2000/svg">
<path d="M18.9458 43.7625C17.6359 43.6913 16.4032 43.1201 15.5021 42.1666C14.4242 41.1296 13.4623 39.9784 12.6333 38.7333C11.3385 36.8791 10.315 34.8496 9.59375 32.7062C8.77679 30.4004 8.34669 27.9753 8.32083 25.5291C8.25805 23.1288 8.85314 20.7571 10.0417 18.6708C10.9116 17.1668 12.1525 15.9109 13.6458 15.0229C15.1227 14.1386 16.8079 13.6627 18.5292 13.6437C19.8267 13.7205 21.1018 14.0171 22.3 14.5208C23.2553 14.9411 24.2608 15.2366 25.2917 15.4C26.4292 15.1617 27.5407 14.8128 28.6104 14.3583C29.8764 13.864 31.2168 13.5871 32.575 13.5396C32.7562 13.5396 32.9354 13.5395 33.1083 13.5604C36.0865 13.6468 38.8565 15.1087 40.6083 17.5187C37.8228 19.008 36.1125 21.938 36.1854 25.0958C36.1579 27.4908 37.1565 29.783 38.9292 31.3937C39.7269 32.1538 40.6558 32.7629 41.6708 33.1916C41.4625 33.8166 41.2229 34.4208 40.9687 35.0291C40.391 36.3735 39.6783 37.6558 38.8417 38.8562C38.0518 40.0587 37.1324 41.1709 36.1 42.1729C35.1576 43.1081 33.9013 43.6597 32.575 43.7208C31.4507 43.6709 30.3463 43.4072 29.3208 42.9437C28.215 42.4619 27.0266 42.1981 25.8208 42.1666C24.581 42.191 23.3574 42.4534 22.2167 42.9395C21.2313 43.3841 20.1786 43.6608 19.1021 43.7583L18.9458 43.7625ZM25.5083 13.5396C25.3521 13.5396 25.1958 13.5396 25.0396 13.5208C25.0067 13.2728 24.9893 13.023 24.9875 12.7729C25.0556 10.6919 25.8689 8.70462 27.2792 7.17288C28.0674 6.29284 29.0227 5.5783 30.0896 5.0708C31.0851 4.5583 32.1731 4.25017 33.2896 4.16455C33.3208 4.43747 33.3208 4.70413 33.3208 4.9583C33.2914 7.00653 32.5218 8.97492 31.1542 10.5C29.8136 12.2974 27.7469 13.4101 25.5083 13.5396Z" fill="white"/>
</svg>
