<svg width="60" height="60" viewBox="0 0 60 60" fill="none" xmlns="http://www.w3.org/2000/svg">
<g clip-path="url(#clip0)">
<path d="M58.8281 35.5518H51.5074L46.1089 13.1141C45.9575 12.4852 45.3257 12.0978 44.6962 12.2488L36.7807 14.1474L36.7805 1.57227C36.7805 0.925039 36.2557 0.400391 35.6086 0.400391H20.5688C19.9216 0.400391 19.3969 0.925039 19.3969 1.57227V7.3707H7.59141C6.9443 7.3707 6.41953 7.89535 6.41953 8.54258V35.5518H1.17188C0.524766 35.5518 0 36.0765 0 36.7237V58.4279C0 59.0751 0.524766 59.5998 1.17188 59.5998H24.744C25.3911 59.5998 25.9159 59.0751 25.9159 58.4279C25.9159 57.7807 25.3911 57.256 24.744 57.256H2.34375V37.8956H10.7273C11.952 37.8956 12.9797 38.9233 12.9797 40.1479C12.9797 42.6493 15.0766 44.7433 17.5758 44.7433H40.9902C43.4887 44.7433 45.5861 42.6534 45.5861 40.1479C45.5861 38.906 46.5964 37.8956 47.8384 37.8956H57.6564V57.256H35.1723C34.5252 57.256 34.0004 57.7807 34.0004 58.4279C34.0004 59.0751 34.5252 59.5998 35.1723 59.5998H58.8281C59.4752 59.5998 60 59.0751 60 58.4279V36.7237C60 36.0765 59.4752 35.5518 58.8281 35.5518V35.5518ZM43.2274 40.3974C43.1918 40.719 43.0861 41.026 42.9195 41.3032L38.7502 23.7752L45.8532 22.0705L49.0968 35.552H47.8378C45.3036 35.552 43.242 37.6136 43.242 40.1478C43.2421 40.231 43.2364 40.3146 43.2274 40.3974V40.3974ZM21.7406 38.6121H34.4367V42.3992H21.7406V38.6121ZM21.7406 36.2683V16.7095H34.4367V36.2683H21.7406ZM34.4367 14.3657H21.7406V9.71434H34.4367V14.3657ZM36.7805 25.6239L40.7711 42.3998H36.7807L36.7805 25.6239ZM44.1042 14.801L45.3049 19.7918L38.2075 21.4951L37.0193 16.5003L44.1042 14.801ZM34.4367 2.74414V7.37059H21.7406V2.74414H34.4367ZM8.76328 9.71445H19.3966V42.3992H17.5758C16.3441 42.3992 15.3233 41.3681 15.3233 40.1387V16.0968C15.3233 15.4496 14.7986 14.925 14.1514 14.925C13.5043 14.925 12.9796 15.4496 12.9796 16.0968V36.1406C12.2953 35.7546 11.5133 35.5518 10.7278 35.5518H8.76328V9.71445Z" fill="white"/>
<path d="M39.1002 51.0829C39.1002 49.0325 37.4322 47.3645 35.3819 47.3645H24.6182C22.5679 47.3645 20.8998 49.0325 20.8998 51.0829C20.8998 53.1333 22.5679 54.8013 24.6182 54.8013H35.3819C37.4322 54.8013 39.1002 53.1333 39.1002 51.0829ZM23.2436 51.0829C23.2436 50.3249 23.8603 49.7083 24.6182 49.7083H35.3819C36.1398 49.7083 36.7565 50.3249 36.7565 51.0829C36.7565 51.8408 36.1397 52.4576 35.3819 52.4576H24.6182C23.8602 52.4576 23.2436 51.8409 23.2436 51.0829Z" fill="white"/>
<path d="M30.9832 57.9793C30.7911 57.5185 30.3143 57.222 29.8156 57.2593C29.3066 57.2973 28.8716 57.6727 28.7592 58.1707C28.5282 59.1943 29.7162 59.9859 30.5757 59.3855C31.0211 59.0741 31.1884 58.4801 30.9832 57.9793V57.9793Z" fill="white"/>
</g>
<defs>
<clipPath id="clip0">
<rect width="60" height="60" fill="white"/>
</clipPath>
</defs>
</svg>
