<svg width="62" height="62" viewBox="0 0 62 62" fill="none" xmlns="http://www.w3.org/2000/svg">
<g clip-path="url(#clip0)">
<path d="M60.5589 14.0291C60.4443 13.817 60.2503 13.6591 60.0193 13.5902L56.9979 12.6891L57.5408 10.8731C57.6946 10.3661 57.6403 9.82882 57.3878 9.36018C57.2885 9.17588 57.1628 9.01216 57.0169 8.87109L58.0236 5.50589C58.5523 3.72763 57.5376 1.85092 55.7631 1.32307C54.9029 1.06562 53.9922 1.15959 53.199 1.58802C52.4071 2.01597 51.8303 2.72449 51.5754 3.58171L50.5685 6.94703C49.9125 7.07018 49.3411 7.51883 49.0867 8.16753L41.2967 0.747875L41.1604 0.617457C40.9974 0.460762 40.8442 0.315449 40.6672 0.204527C40.6593 0.199078 40.6513 0.19375 40.6432 0.188543C40.6399 0.186605 40.6368 0.184547 40.6336 0.18273C40.5637 0.13841 40.4877 0.103172 40.4066 0.0791953C40.2701 0.0303945 40.1178 0 39.9355 0H3.0518C2.10352 0 1.33203 0.771125 1.33203 1.71893V27.7072C1.33203 28.2089 1.73866 28.6154 2.24023 28.6154C2.7418 28.6154 3.14844 28.2089 3.14844 27.7072V1.81641H39.2396L39.2336 7.06098C39.2336 9.36321 41.1065 11.2362 43.4086 11.2362H48.1606L44.4264 23.7232C44.2827 24.2037 44.5557 24.7098 45.0363 24.8535C45.5171 24.9977 46.0229 24.7242 46.1666 24.2436L50.2395 10.6242C50.2471 10.6019 50.2538 10.5794 50.2598 10.5563L50.7716 8.84505C50.7966 8.76065 50.8959 8.70967 50.9823 8.7351L55.6914 10.1406C55.7442 10.1563 55.7735 10.1933 55.7886 10.2215C55.8038 10.2496 55.8184 10.2941 55.8016 10.3495L54.9988 13.034C54.9982 13.0361 54.9973 13.038 54.9967 13.0401C54.9961 13.0422 54.9958 13.0442 54.9952 13.0462L45.0919 46.1658L43.4486 45.6756L40.0617 44.6652L44.9662 28.2664C45.11 27.7858 44.8369 27.2798 44.3563 27.136C43.8759 26.9922 43.3697 27.2653 43.226 27.7458L38.061 45.0153C38.0594 45.0206 38.0586 45.026 38.057 45.0315C38.054 45.0423 38.0517 45.0532 38.049 45.0641C38.0435 45.087 38.0388 45.11 38.0352 45.133C38.0334 45.1445 38.0317 45.1559 38.0302 45.1675C38.0272 45.1927 38.0254 45.2179 38.0245 45.2432C38.0242 45.2523 38.0234 45.2611 38.0233 45.2702C38.0231 45.3047 38.0246 45.3391 38.0284 45.3735C38.0285 45.3746 38.0284 45.3756 38.0285 45.3767L38.5307 49.8574L38.8899 53.0294C38.5457 52.8038 38.2872 52.4109 37.9768 51.9045C37.5956 51.2826 37.0733 50.4311 36.0733 50.6189C35.2333 50.7809 34.8383 51.4829 34.4563 52.1616C34.258 52.5138 34.053 52.878 33.7674 53.2406C33.5562 53.5091 33.4136 53.5854 33.3679 53.5881C33.3313 53.5911 33.1201 53.5709 32.5248 52.9786C30.9672 51.4331 29.7556 52.4875 29.1734 52.9939C28.9561 53.1832 28.7096 53.3974 28.5477 53.4266C28.3945 53.4525 28.1155 53.2965 27.7983 53.0054C27.4285 52.6663 26.8541 52.6912 26.5151 53.0611C26.1761 53.4308 26.2009 54.0053 26.5706 54.3443C28.4295 56.049 29.7372 54.9112 30.3657 54.3642C30.5193 54.2306 30.7762 54.0071 30.8643 53.9906C30.8655 53.9907 30.9886 54.0131 31.2446 54.2671C31.8135 54.8333 32.5066 55.4048 33.3613 55.4048C33.4 55.4048 33.4389 55.4035 33.4782 55.4012C34.1061 55.3632 34.6838 55.014 35.1948 54.3643C35.5672 53.8918 35.8291 53.4264 36.0396 53.0525C36.115 52.9187 36.205 52.7585 36.2876 52.6269C36.3361 52.7033 36.3853 52.7834 36.4286 52.854C36.9387 53.6856 37.8808 55.2196 39.9751 55.0446C39.9787 55.0446 39.9826 55.0455 39.9862 55.0455C40.1211 55.0455 40.241 55.0142 40.3463 54.9674C40.3618 54.9608 40.3765 54.9533 40.3915 54.9459C40.3946 54.9444 40.3977 54.9429 40.4007 54.9413C40.4449 54.9189 40.487 54.8934 40.5263 54.8644C40.655 54.7742 40.7512 54.6702 40.8137 54.6024C40.8241 54.5911 40.8341 54.5796 40.844 54.5677L46.4008 47.8759C46.4091 47.8659 46.4157 47.8549 46.4236 47.8447C46.4335 47.8317 46.4432 47.8187 46.4525 47.8051C46.4717 47.7769 46.4889 47.7479 46.5046 47.718C46.5093 47.7089 46.5149 47.7005 46.5194 47.6913C46.539 47.6509 46.5549 47.6091 46.5682 47.5665C46.5694 47.5627 46.5712 47.5596 46.5723 47.5558L49.1268 39.0128V60.1836H3.14844V31.9053C3.14844 31.4036 2.7418 30.9971 2.24023 30.9971C1.73866 30.9971 1.33203 31.4036 1.33203 31.9053V60.2777C1.33203 61.2273 2.10352 62 3.0518 62H49.2201C50.1704 62 50.9433 61.2273 50.9433 60.2776V32.9379L56.4776 14.4293L58.6294 15.0711L54.9387 27.4127C54.7949 27.8932 55.068 28.3993 55.5486 28.543C55.6354 28.5689 55.723 28.5813 55.8092 28.5813C56.2002 28.5813 56.5612 28.3267 56.679 27.9329L60.6301 14.7206C60.699 14.4898 60.6734 14.2411 60.5589 14.0291ZM53.3161 4.10084C53.433 3.70789 53.6981 3.383 54.0627 3.1861C54.4284 2.98835 54.8472 2.94488 55.2437 3.06343C56.06 3.30634 56.5261 4.16974 56.2832 4.98664L55.3398 8.13992L52.3728 7.25436L53.3161 4.10084ZM41.0501 7.06195L41.0545 3.02492L47.7679 9.41964H43.4085C42.1081 9.41964 41.0501 8.36152 41.0501 7.06195ZM40.6033 52.0141L39.9869 46.5383L44.1251 47.7728L40.6033 52.0141Z" fill="white"/>
<path d="M12.8277 24.5159C12.8277 25.0176 13.2343 25.4241 13.7359 25.4241H38.3951C38.8966 25.4241 39.3033 25.0176 39.3033 24.5159C39.3033 24.0142 38.8966 23.6077 38.3951 23.6077H13.7359C13.2343 23.6077 12.8277 24.0143 12.8277 24.5159Z" fill="white"/>
<path d="M13.7359 32.4837H36.8923C37.3939 32.4837 37.8005 32.0771 37.8005 31.5754C37.8005 31.0738 37.3939 30.6672 36.8923 30.6672H13.7359C13.2343 30.6672 12.8277 31.0738 12.8277 31.5754C12.8277 32.0771 13.2343 32.4837 13.7359 32.4837Z" fill="white"/>
<path d="M13.7359 39.5432H35.1007C35.6023 39.5432 36.0089 39.1367 36.0089 38.635C36.0089 38.1333 35.6023 37.7268 35.1007 37.7268H13.7359C13.2343 37.7268 12.8277 38.1333 12.8277 38.635C12.8277 39.1367 13.2343 39.5432 13.7359 39.5432Z" fill="white"/>
<path d="M13.7359 46.603H28.3677C28.8692 46.603 29.2759 46.1965 29.2759 45.6948C29.2759 45.1931 28.8692 44.7866 28.3677 44.7866H13.7359C13.2343 44.7866 12.8277 45.1931 12.8277 45.6948C12.8277 46.1965 13.2343 46.603 13.7359 46.603Z" fill="white"/>
<path d="M35.5063 18.4435C36.3484 18.4435 37.0336 17.7587 37.0336 16.917V13.255C37.0336 12.4133 36.3484 11.7285 35.5063 11.7285H15.5206C14.6785 11.7285 13.9934 12.4133 13.9934 13.255V16.9169C13.9934 17.7586 14.6785 18.4434 15.5206 18.4434H35.5063V18.4435ZM15.8098 13.5448H35.2173V16.6271H15.8098V13.5448Z" fill="white"/>
</g>
<defs>
<clipPath id="clip0">
<rect width="62" height="62" fill="white"/>
</clipPath>
</defs>
</svg>
