<svg width="60" height="60" viewBox="0 0 60 60" fill="none" xmlns="http://www.w3.org/2000/svg">
<g clip-path="url(#clip0)">
<path d="M57.5 5C57.4967 2.23995 55.2601 0.00330612 52.5 0H12.5C9.73995 0.00330612 7.50331 2.23995 7.5 5V24C7.5 24.5523 7.94772 25 8.5 25C9.05228 25 9.5 24.5523 9.5 24V5C9.5 3.34315 10.8431 2 12.5 2H52.5C54.1569 2 55.5 3.34315 55.5 5V44H48.5C45.74 44.0033 43.5033 46.24 43.5 49V56H39.5C38.9477 56 38.5 56.4477 38.5 57C38.5 57.5523 38.9477 58 39.5 58H44.5C44.7652 58 45.0195 57.8946 45.207 57.707L57.207 45.707C57.3946 45.5195 57.5 45.2652 57.5 45V5ZM48.5 46H54.086L45.5 54.586V49C45.5 47.3432 46.8432 46 48.5 46Z" fill="white"/>
<path d="M16.5 6H14.5C13.9477 6 13.5 6.44772 13.5 7C13.5 7.55229 13.9477 8 14.5 8H16.5C17.0523 8 17.5 7.55229 17.5 7C17.5 6.44772 17.0523 6 16.5 6Z" fill="white"/>
<path d="M50.5 6H20.5C19.9477 6 19.5 6.44772 19.5 7C19.5 7.55229 19.9477 8 20.5 8H50.5C51.0523 8 51.5 7.55229 51.5 7C51.5 6.44772 51.0523 6 50.5 6Z" fill="white"/>
<path d="M16.5 12H14.5C13.9477 12 13.5 12.4477 13.5 13C13.5 13.5523 13.9477 14 14.5 14H16.5C17.0523 14 17.5 13.5523 17.5 13C17.5 12.4477 17.0523 12 16.5 12Z" fill="white"/>
<path d="M20.5 14H43.5C44.0523 14 44.5 13.5523 44.5 13C44.5 12.4477 44.0523 12 43.5 12H20.5C19.9477 12 19.5 12.4477 19.5 13C19.5 13.5523 19.9477 14 20.5 14Z" fill="white"/>
<path d="M16.5 18H14.5C13.9477 18 13.5 18.4477 13.5 19C13.5 19.5523 13.9477 20 14.5 20H16.5C17.0523 20 17.5 19.5523 17.5 19C17.5 18.4477 17.0523 18 16.5 18Z" fill="white"/>
<path d="M20.5 20H36.5C37.0523 20 37.5 19.5523 37.5 19C37.5 18.4477 37.0523 18 36.5 18H20.5C19.9477 18 19.5 18.4477 19.5 19C19.5 19.5523 19.9477 20 20.5 20Z" fill="white"/>
<path d="M53.5 21C53.5 20.4477 53.0523 20 52.5 20C51.9477 20 51.5 20.4477 51.5 21V35C51.5 35.5523 51.9477 36 52.5 36C53.0523 36 53.5 35.5523 53.5 35V21Z" fill="white"/>
<path d="M52.5 38C51.9477 38 51.5 38.4477 51.5 39V41C51.5 41.5523 51.9477 42 52.5 42C53.0523 42 53.5 41.5523 53.5 41V39C53.5 38.4477 53.0523 38 52.5 38Z" fill="white"/>
<path d="M2.49999 55.918C2.46677 57.5357 3.4115 59.0142 4.89355 59.6637C6.37559 60.3132 8.10298 60.0058 9.26999 58.885L19 49.545L28.729 58.885C29.7571 59.8889 31.2448 60.2641 32.6261 59.868C34.0074 59.4719 35.0701 58.3653 35.41 56.9691C35.7499 55.5729 35.3147 54.1016 34.27 53.115L24.776 44L34.27 34.885C35.4372 33.7647 35.8147 32.0515 35.2263 30.5444C34.6379 29.0373 33.1995 28.0331 31.582 28C30.5202 27.9738 29.4925 28.3756 28.73 29.115L19 38.455L9.27099 29.115C8.50574 28.3801 7.4799 27.9794 6.41918 28.001C5.35845 28.0226 4.34975 28.4646 3.61499 29.23C2.08544 30.8234 2.13692 33.355 3.72999 34.885L13.224 44L3.72999 53.115C2.96142 53.847 2.51838 54.8567 2.49999 55.918ZM5.11399 54.557L15.36 44.721C15.5562 44.5324 15.6671 44.2721 15.6671 44C15.6671 43.7279 15.5562 43.4675 15.36 43.279L5.11499 33.443C4.53102 32.8829 4.34207 32.0261 4.63631 31.2723C4.93055 30.5185 5.64999 30.0163 6.45899 30C6.9902 29.9845 7.50489 30.1856 7.88499 30.557L18.308 40.563C18.6948 40.9338 19.3052 40.9338 19.692 40.563L30.115 30.557C30.4935 30.1831 31.0093 29.9816 31.541 30C32.35 30.0163 33.0694 30.5185 33.3637 31.2723C33.6579 32.0261 33.469 32.8829 32.885 33.443L22.64 43.279C22.4438 43.4675 22.3329 43.7279 22.3329 44C22.3329 44.2721 22.4438 44.5324 22.64 44.721L32.885 54.557C33.2676 54.9244 33.4885 55.4288 33.4992 55.9591C33.5099 56.4895 33.3095 57.0024 32.942 57.385C32.1661 58.1556 30.9218 58.1811 30.115 57.443L19.692 47.443C19.3052 47.0722 18.6948 47.0722 18.308 47.443L7.88499 57.443C7.07822 58.1822 5.83278 58.1567 5.05699 57.385C4.68964 57.0023 4.48937 56.4893 4.50025 55.9589C4.51112 55.4286 4.73226 54.9243 5.11499 54.557H5.11399Z" fill="white"/>
</g>
<defs>
<clipPath id="clip0">
<rect width="60" height="60" fill="white"/>
</clipPath>
</defs>
</svg>
