<svg width="60" height="60" viewBox="0 0 60 60" fill="none" xmlns="http://www.w3.org/2000/svg">
<g clip-path="url(#clip0)">
<path d="M45.2272 39.8007L39.0776 39.8006V36.1307C42.6357 33.3984 44.9341 29.1033 44.9341 24.2809V19.7228C45.976 14.4327 45.5227 10.5348 43.5848 8.1375C42.4637 6.75035 41.1115 6.22125 40.2486 6.01934C40.2484 5.25551 40.2481 3.76207 40.2481 0.913359C40.2481 0.428203 39.855 0.0349219 39.3697 0.0349219C38.6612 0.0349219 37.9351 0.0268359 37.1661 0.0181641C36.3677 0.00925781 35.5419 0 34.7058 0C28.3472 0 21.9352 0.598125 18.1043 4.9377C15.2188 8.20629 14.2237 13.0559 15.0623 19.7633C15.063 19.7693 15.065 19.7748 15.0658 19.7805V24.2808C15.0658 29.1034 17.3642 33.3986 20.9225 36.1307V39.8007H14.7726C11.059 39.8007 8.03763 42.822 8.03763 46.5357C8.03763 46.5381 8.03798 46.5402 8.03798 46.5425V51.2209C8.03798 51.7058 8.4315 52.0993 8.91642 52.0993C9.40017 52.0993 9.79485 51.7058 9.79485 51.2209V46.5357C9.79485 46.5342 9.79462 46.5328 9.79462 46.5313C9.79708 43.7884 12.0292 41.5577 14.7725 41.5577H21.5351L24.7548 43.7043L27.9157 46.8652L26.8568 58.2427H17.9941V52.4508C17.9941 51.9656 17.6008 51.5723 17.1157 51.5723C16.6305 51.5723 16.2372 51.9656 16.2372 52.4508V58.2428H9.79509V54.735C9.79509 54.2501 9.4004 53.8566 8.91665 53.8566C8.43173 53.8566 8.03821 54.2501 8.03821 54.735V59.1145C8.03821 59.1169 8.03786 59.1191 8.03786 59.1213C8.03786 59.5194 8.30282 59.8553 8.66587 59.9631C8.74544 59.9869 8.82935 60 8.91665 60C8.91817 60 8.91958 59.9998 8.92122 59.9998H27.6513C27.6538 59.9998 27.6562 60.0001 27.6586 60.0001C27.661 60.0001 27.6634 59.9998 27.6658 59.9998H32.3394C32.3402 59.9998 32.341 59.9999 32.3417 59.9999C32.3425 59.9999 32.3434 59.9998 32.3442 59.9998H51.0793C51.0809 59.9998 51.0824 60 51.0839 60C51.5691 60 51.9623 59.6068 51.9623 59.1216V46.5357C51.9622 42.8221 48.941 39.8007 45.2272 39.8007ZM19.4216 6.10055C22.7914 2.28305 28.759 1.75687 34.7058 1.75687C35.5322 1.75687 36.3528 1.76602 37.1464 1.77492C37.6078 1.78008 38.0539 1.78512 38.4911 1.78828C38.4913 6.11391 38.4918 6.77391 38.4918 6.77391C38.4923 7.25414 38.8706 7.64473 39.3507 7.65129C39.418 7.6534 41.0104 7.72043 42.2448 9.27469C43.4932 10.8468 43.9525 13.4187 43.6049 16.7946L42.2816 14.1483C42.0881 13.7612 41.6413 13.5729 41.229 13.7043C41.1501 13.7295 33.285 16.2192 28.715 16.2192C24.2681 16.2192 20.2653 13.8155 20.2262 13.7916C19.8398 13.5552 19.3371 13.6519 19.0653 14.014L16.5922 17.3116C16.2733 12.2917 17.2054 8.61094 19.4216 6.10055ZM16.8229 24.2809V19.9336L20.0121 15.6811C21.4434 16.4279 24.8749 17.9766 28.7155 17.9766C32.7686 17.9766 38.941 16.2319 41.0433 15.6001L43.1772 19.8679V24.2811C43.1772 31.4876 37.3619 37.3604 30.1777 37.4559C30.1203 37.4441 30.0609 37.438 30.0001 37.438C29.9392 37.438 29.88 37.4442 29.8224 37.4559C22.638 37.3603 16.8229 31.4873 16.8229 24.2809ZM37.3207 37.2935V40.209L34.5215 42.0752L30.8785 41.1646V39.1886C33.2084 39.0527 35.3962 38.3804 37.3207 37.2935ZM22.6795 40.2089V37.2934C24.6038 38.3804 26.7917 39.0527 29.1215 39.1884V41.1645L25.4786 42.0751L22.6795 40.2089ZM27.033 43.4977L30 42.756L32.9669 43.4977L30.8075 45.6573H29.1927L27.033 43.4977ZM28.6214 58.2427L29.6293 47.4142H30.3709L31.3787 58.2427H28.6214ZM50.2052 58.2427H33.1432L32.0842 46.8652L35.2448 43.7044L38.4648 41.5576L45.227 41.5577C47.972 41.5577 50.2051 43.7909 50.2051 46.5357V58.2427H50.2052Z" fill="white"/>
<path d="M46.3983 48.0584H43.7629V46.5943C43.7629 46.109 43.3697 45.7158 42.8844 45.7158H39.3706C38.8853 45.7158 38.4921 46.109 38.4921 46.5943V48.0584H35.8567C35.3714 48.0584 34.9783 48.4516 34.9783 48.9368V54.7934C34.9783 55.2787 35.3714 55.6718 35.8567 55.6718H46.3984C46.8837 55.6718 47.2769 55.2787 47.2769 54.7934V48.9368C47.2767 48.4516 46.8836 48.0584 46.3983 48.0584ZM40.249 47.4727H42.006V48.0583H40.249V47.4727ZM45.5199 53.9148H36.7351V49.8153H39.3706H42.8844H45.5199V53.9148Z" fill="white"/>
</g>
<defs>
<clipPath id="clip0">
<rect width="60" height="60" fill="white"/>
</clipPath>
</defs>
</svg>
