<svg width="50" height="50" viewBox="0 0 50 50" fill="none" xmlns="http://www.w3.org/2000/svg">
<path d="M11.25 43.7501C10.8947 43.7558 10.5414 43.6951 10.2083 43.571L26.9875 26.7855L32.5417 32.346L13.2604 43.1793C12.6497 43.5373 11.9578 43.7337 11.25 43.7501ZM8.82501 42.3647C8.48392 41.747 8.31417 41.0493 8.33334 40.3439V9.70846C8.33052 9.24342 8.40083 8.78083 8.54167 8.33763L25.6938 25.4939L8.81876 42.3689L8.82501 42.3647ZM34.1979 31.4105L28.2792 25.496L34.8063 18.971L40.6042 22.2272C41.7171 22.7253 42.4618 23.7998 42.5375 25.0168C42.4622 26.235 41.7165 27.3106 40.6021 27.8085L34.1979 31.4105ZM26.9875 24.196L9.61251 6.82305C10.0896 6.47029 10.6671 6.27972 11.2604 6.2793C11.9611 6.30418 12.6447 6.50246 13.25 6.85638L33.1479 18.0397L26.9896 24.196H26.9875Z" fill="url(#paint0_linear)"/>
<defs>
<linearGradient id="paint0_linear" x1="8" y1="25" x2="43" y2="25" gradientUnits="userSpaceOnUse">
<stop stop-color="#BF0D23"/>
<stop offset="1" stop-color="#0C4B80"/>
</linearGradient>
</defs>
</svg>
